<?xml version="1.0" encoding="utf-8"?>
<!-- Generator: Adobe Illustrator 17.0.0, SVG Export Plug-In . SVG Version: 6.00 Build 0)  -->
<!DOCTYPE svg PUBLIC "-//W3C//DTD SVG 1.1//EN" "http://www.w3.org/Graphics/SVG/1.1/DTD/svg11.dtd">
<svg version="1.1" id="Layer_1" xmlns="http://www.w3.org/2000/svg" xmlns:xlink="http://www.w3.org/1999/xlink" x="0px" y="0px"
	 width="519.403px" height="525.373px" viewBox="0 0 519.403 525.373" enable-background="new 0 0 519.403 525.373"
	 xml:space="preserve">
<g>
	<circle fill="#3C3C3B" cx="259.701" cy="262.687" r="238.244"/>
	<g>
		<path fill="#FFFFFF" d="M267.016,283.703c-73.527,32.546-140.146,43.093-148.794,23.56c-4.161-9.4,5.879-24.053,25.575-40.346
			c-39.763,24.961-63.256,48.921-57.511,61.901c8.648,19.533,80.247,6.782,159.914-28.483
			c58.77-26.013,105.475-56.998,122.491-79.313C348.489,240.662,311.622,263.958,267.016,283.703z"/>
		<path fill="#FFFFFF" d="M286.381,306.198c75.004-28.976,129.57-68.625,121.875-88.554c-3.705-9.588-21.168-12.849-46.615-10.443
			c45.768-10.467,79.32-10.136,84.439,3.102c7.693,19.929-51.949,61.539-133.219,92.938
			c-59.953,23.161-114.886,34.276-142.698,30.53C198.336,333.375,240.879,323.777,286.381,306.198z"/>
		<path fill="#FFFFFF" d="M359.924,219.675c-16.52-39.042-55.18-66.436-100.242-66.436c-60.083,0-108.79,48.708-108.79,108.791
			c0,4.934,0.36,9.783,0.996,14.544c27.181,3.736,63.383,1.394,101.856-7.919C299.807,257.503,338.411,238.961,359.924,219.675z"/>
		<path fill="#FFFFFF" d="M271.534,339.614c-30.686,6.66-61.173,7.476-84.618,3.278c19.276,17.358,44.784,27.932,72.767,27.932
			c50.263,0,92.54-34.092,105.029-80.406C348.454,310.996,315.544,330.059,271.534,339.614z"/>
	</g>
</g>
</svg>
