<?xml version="1.0" encoding="utf-8"?>
<!-- Generator: Adobe Illustrator 17.0.0, SVG Export Plug-In . SVG Version: 6.00 Build 0)  -->
<!DOCTYPE svg PUBLIC "-//W3C//DTD SVG 1.1//EN" "http://www.w3.org/Graphics/SVG/1.1/DTD/svg11.dtd">
<svg version="1.1" id="Layer_1" xmlns="http://www.w3.org/2000/svg" xmlns:xlink="http://www.w3.org/1999/xlink" x="0px" y="0px"
	 width="519.403px" height="525.373px" viewBox="0 0 519.403 525.373" enable-background="new 0 0 519.403 525.373"
	 xml:space="preserve">
<g display="none">
	<circle display="inline" fill="#3C3C3B" cx="259.701" cy="262.687" r="238.244"/>
	<g display="inline">
		<path fill="#FFFFFF" d="M267.016,283.703c-73.527,32.546-140.146,43.093-148.794,23.56c-4.161-9.4,5.879-24.053,25.575-40.346
			c-39.763,24.961-63.256,48.921-57.511,61.901c8.648,19.533,80.247,6.782,159.914-28.483
			c58.77-26.013,105.475-56.998,122.491-79.313C348.489,240.662,311.622,263.958,267.016,283.703z"/>
		<path fill="#FFFFFF" d="M286.381,306.198c75.004-28.976,129.57-68.625,121.875-88.554c-3.705-9.588-21.168-12.849-46.615-10.443
			c45.768-10.467,79.32-10.136,84.439,3.102c7.693,19.929-51.949,61.539-133.219,92.938
			c-59.953,23.161-114.886,34.276-142.698,30.53C198.336,333.375,240.879,323.777,286.381,306.198z"/>
		<path fill="#FFFFFF" d="M359.924,219.675c-16.52-39.042-55.18-66.436-100.242-66.436c-60.083,0-108.79,48.708-108.79,108.791
			c0,4.934,0.36,9.783,0.996,14.544c27.181,3.736,63.383,1.394,101.856-7.919C299.807,257.503,338.411,238.961,359.924,219.675z"/>
		<path fill="#FFFFFF" d="M271.534,339.614c-30.686,6.66-61.173,7.476-84.618,3.278c19.276,17.358,44.784,27.932,72.767,27.932
			c50.263,0,92.54-34.092,105.029-80.406C348.454,310.996,315.544,330.059,271.534,339.614z"/>
	</g>
</g>
<g>
	<path fill="#E30613" d="M499.868,262.686c0,132.641-107.527,240.166-240.164,240.166c-132.642,0-240.169-107.525-240.169-240.166
		c0-132.639,107.527-240.165,240.169-240.165C392.341,22.521,499.868,130.048,499.868,262.686z"/>
	<g>
		<path fill="#FFFFFF" d="M267.075,283.872c-74.12,32.809-141.277,43.441-149.994,23.749c-4.196-9.475,5.926-24.246,25.781-40.67
			c-40.084,25.163-63.766,49.315-57.976,62.4c8.719,19.69,80.895,6.836,161.204-28.714c59.245-26.222,106.326-57.457,123.479-79.953
			C349.205,240.484,312.041,263.968,267.075,283.872z"/>
		<path fill="#FFFFFF" d="M286.597,306.549c75.609-29.211,130.616-69.18,122.859-89.269c-3.736-9.665-21.339-12.953-46.992-10.528
			c46.136-10.55,79.96-10.216,85.122,3.128c7.755,20.089-52.369,62.034-134.295,93.689
			c-60.436,23.347-115.811,34.552-143.849,30.775C197.842,333.945,240.727,324.271,286.597,306.549z"/>
		<path fill="#FFFFFF" d="M360.734,219.328c-16.653-39.356-55.625-66.971-101.05-66.971c-60.567,0-109.669,49.101-109.669,109.668
			c0,4.974,0.364,9.862,1.004,14.663c27.4,3.767,63.896,1.405,102.679-7.984C300.131,257.461,339.046,238.77,360.734,219.328z"/>
		<path fill="#FFFFFF" d="M271.63,340.235c-30.934,6.714-61.667,7.536-85.302,3.303c19.432,17.498,45.147,28.158,73.356,28.158
			c50.667,0,93.286-34.367,105.874-81.055C349.17,311.386,315.994,330.603,271.63,340.235z"/>
	</g>
</g>
</svg>
