<?xml version="1.0" encoding="utf-8"?>
<!-- Generator: Adobe Illustrator 17.0.0, SVG Export Plug-In . SVG Version: 6.00 Build 0)  -->
<!DOCTYPE svg PUBLIC "-//W3C//DTD SVG 1.1//EN" "http://www.w3.org/Graphics/SVG/1.1/DTD/svg11.dtd">
<svg version="1.1" id="Layer_1" xmlns="http://www.w3.org/2000/svg" xmlns:xlink="http://www.w3.org/1999/xlink" x="0px" y="0px"
	 width="78.707px" height="78.732px" viewBox="0 0 78.707 78.732" enable-background="new 0 0 78.707 78.732" xml:space="preserve">
<g id="Facebook_4_">
	<path fill="#FFFFFF" d="M39.358,1.401c-20.97,0-37.97,17-37.97,37.97c0,20.96,17,37.96,37.97,37.96c20.96,0,37.96-17,37.96-37.96
		C77.318,18.401,60.318,1.401,39.358,1.401z M57.251,55.421c0,1.12,0.027,2.446-1.083,2.446h-9.917v-14h5.327l0.72-6h-6.047v-3.716
		c0-1.6,1.007-2.284,3.307-2.284h2.693v-5.366c-1-0.07-2.55-0.22-4.58-0.22c-4.22,0-7.42,2.58-7.42,7.32v4.266h-5v6h5v14H23.508
		c-1.12,0-2.257-1.326-2.257-2.446v-32.66c0-1.12,1.137-1.894,2.257-1.894h32.66c1.11,0,1.083,0.774,1.083,1.894V55.421z"/>
</g>
</svg>
