<?xml version="1.0" encoding="utf-8"?>
<!-- Generator: Adobe Illustrator 17.0.0, SVG Export Plug-In . SVG Version: 6.00 Build 0)  -->
<!DOCTYPE svg PUBLIC "-//W3C//DTD SVG 1.1//EN" "http://www.w3.org/Graphics/SVG/1.1/DTD/svg11.dtd">
<svg version="1.1" id="Layer_1" xmlns="http://www.w3.org/2000/svg" xmlns:xlink="http://www.w3.org/1999/xlink" x="0px" y="0px"
	 width="78.707px" height="78.732px" viewBox="0 0 78.707 78.732" enable-background="new 0 0 78.707 78.732" xml:space="preserve">
<g id="Instagram_5_">
	<path fill="#FFFFFF" d="M33.308,39.311c0-3.89,3.15-7.04,7.04-7.04c3.9,0,7.06,3.15,7.06,7.04c0,3.88-3.16,7.03-7.06,7.03
		C36.458,46.341,33.308,43.191,33.308,39.311z"/>
	<path fill="#FFFFFF" d="M53.251,30.717c0,0.635-0.515,1.15-1.15,1.15h-3.7c-0.635,0-1.15-0.515-1.15-1.15v-3.7
		c0-0.635,0.515-1.15,1.15-1.15h3.7c0.635,0,1.15,0.515,1.15,1.15V30.717z"/>
	<path fill="#FFFFFF" d="M50.618,36.867h3.633v16.144c0,0.64,0.437,1.856-0.193,1.856h-27.5c-0.63,0-1.307-1.216-1.307-1.856V36.867
		h4.747c-0.6,0-0.8,1.942-0.8,2.962c0,6.13,5.01,10.871,11.15,10.871c6.16,0,11.16-4.611,11.16-10.741
		C51.508,38.939,51.358,36.867,50.618,36.867z"/>
	<path fill="#FFFFFF" d="M39.358,1.401c-20.97,0-37.97,17-37.97,37.97c0,20.96,17,37.96,37.97,37.96c20.96,0,37.96-17,37.96-37.96
		C77.318,18.401,60.318,1.401,39.358,1.401z M58.251,53.251c0,2.4-1.563,4.616-3.963,4.616h-27.95c-2.41,0-5.087-2.216-5.087-4.616
		v-27.97c0-2.4,2.677-3.414,5.087-3.414h27.95c2.4,0,3.963,1.014,3.963,3.414V53.251z"/>
</g>
</svg>
