<?xml version="1.0" encoding="utf-8"?>
<!-- Generator: Adobe Illustrator 17.0.0, SVG Export Plug-In . SVG Version: 6.00 Build 0)  -->
<!DOCTYPE svg PUBLIC "-//W3C//DTD SVG 1.1//EN" "http://www.w3.org/Graphics/SVG/1.1/DTD/svg11.dtd">
<svg version="1.1" id="Layer_1" xmlns="http://www.w3.org/2000/svg" xmlns:xlink="http://www.w3.org/1999/xlink" x="0px" y="0px"
	 width="78.707px" height="78.732px" viewBox="0 0 78.707 78.732" enable-background="new 0 0 78.707 78.732" xml:space="preserve">
<g id="Twitter_5_">
	<path fill="#FFFFFF" d="M39.358,1.401c-20.97,0-37.97,17-37.97,37.97c0,20.96,17,37.96,37.97,37.96c20.96,0,37.96-17,37.96-37.96
		C77.318,18.401,60.318,1.401,39.358,1.401z M53.788,31.321c0.01,0.34,0.02,0.68,0.02,1.02c0,10.41-7.73,22.42-21.86,22.42
		c-4.34,0-8.38-1.31-11.78-3.54c0.6,0.07,1.21,0.11,1.83,0.11c3.6,0,6.92-1.26,9.55-3.37c-3.37-0.07-6.2-2.34-7.18-5.47
		c0.47,0.09,0.95,0.14,1.44,0.14c0.71,0,1.181-0.1,1.821-0.28c-3.52-0.72-6.379-3.91-6.379-7.73v-0.09c1,0.58,2.439,0.94,3.699,0.98
		c-2.07-1.41-3.316-3.83-3.316-6.56c0-1.44,0.432-2.8,1.092-3.96c3.79,4.77,9.476,7.9,15.866,8.23c-0.14-0.58-0.187-1.18-0.187-1.79
		c0-4.35,3.447-7.88,7.687-7.88c2.21,0,4.213,0.95,5.613,2.48c1.75-0.35,3.392-1,4.882-1.91c-0.57,1.84-1.789,3.39-3.379,4.36
		c1.56-0.19,3.04-0.61,4.41-1.24C56.598,28.821,55.288,30.211,53.788,31.321z"/>
</g>
</svg>
